<svg width="140" height="101" viewBox="0 0 140 101" fill="none" xmlns="http://www.w3.org/2000/svg">
<path d="M70 0C54.01 12.5125 46 23.32 46 32.45C46 46.145 57.4 55 70 55C82.6 55 94 46.145 94 32.45C94 23.32 85.99 12.5125 70 0ZM57.49 33C58.6 33 59.5 33.715 59.71 34.705C60.94 40.81 66.55 42.9 70.63 42.5975C71.92 42.5425 73 43.4775 73 44.66C73 45.76 72.04 46.6675 70.84 46.7225C64.45 47.08 56.98 43.725 55.27 35.3925C55.2179 35.0977 55.2362 34.796 55.3238 34.5083C55.4113 34.2206 55.566 33.9537 55.7771 33.7262C55.9882 33.4987 56.2508 33.3159 56.5465 33.1905C56.8422 33.0651 57.1642 33.0001 57.49 33Z" fill="#2050F6"/>
<path d="M5.92407 95.0588L0 79.2353H4.48886L9.40522 92.8529H7.26767L12.3978 79.2353H16.4286L21.406 92.8529H19.2685L24.3375 79.2353H28.5516L22.597 95.0588H17.986L13.6192 83.3824H15.0239L10.5045 95.0588H5.92407Z" fill="#2050F6"/>
<path d="M40.3064 95.0588V91.9706L40.0011 91.2941V85.7647C40.0011 84.7843 39.6855 84.0196 39.0544 83.4706C38.4437 82.9216 37.4971 82.6471 36.2145 82.6471C35.3392 82.6471 34.474 82.7843 33.6189 83.0588C32.7843 83.3137 32.0718 83.6667 31.4814 84.1176L29.7714 80.9118C30.6671 80.3039 31.746 79.8333 33.0082 79.5C34.2704 79.1667 35.5529 79 36.8558 79C39.3598 79 41.3039 79.5686 42.6883 80.7059C44.0726 81.8431 44.7647 83.6176 44.7647 86.0294V95.0588H40.3064ZM35.2984 95.2941C34.0159 95.2941 32.9166 95.0882 32.0005 94.6765C31.0844 94.2451 30.3821 93.6667 29.8935 92.9412C29.4049 92.2157 29.1606 91.402 29.1606 90.5C29.1606 89.5588 29.3947 88.7353 29.863 88.0294C30.3515 87.3235 31.115 86.7745 32.1532 86.3824C33.1914 85.9706 34.5452 85.7647 36.2145 85.7647H40.5812V88.4412H36.7337C35.614 88.4412 34.8404 88.6176 34.4129 88.9706C34.0057 89.3235 33.8022 89.7647 33.8022 90.2941C33.8022 90.8824 34.0363 91.3529 34.5045 91.7059C34.9931 92.0392 35.6547 92.2059 36.4894 92.2059C37.2833 92.2059 37.9958 92.0294 38.6269 91.6765C39.258 91.3039 39.7161 90.7647 40.0011 90.0588L40.7339 92.1765C40.3879 93.1961 39.7568 93.9706 38.8407 94.5C37.9246 95.0294 36.7438 95.2941 35.2984 95.2941Z" fill="#2050F6"/>
<path d="M59.0615 79C60.3644 79 61.5248 79.2549 62.5427 79.7647C63.5809 80.2549 64.3952 81.0196 64.9856 82.0588C65.576 83.0784 65.8711 84.3922 65.8711 86V95.0588H61.1075V86.7059C61.1075 85.4314 60.8123 84.4902 60.2219 83.8824C59.6519 83.2745 58.8376 82.9706 57.779 82.9706C57.0258 82.9706 56.3438 83.1275 55.733 83.4412C55.1427 83.7353 54.6744 84.1961 54.3284 84.8235C54.0026 85.451 53.8398 86.2549 53.8398 87.2353V95.0588H49.0761V79.2353H53.626V83.6176L52.771 82.2941C53.3614 81.2353 54.2062 80.4216 55.3055 79.8529C56.4049 79.2843 57.6568 79 59.0615 79Z" fill="#2050F6"/>
<path d="M80.2662 95.0588V91.9706L79.9608 91.2941V85.7647C79.9608 84.7843 79.6453 84.0196 79.0142 83.4706C78.4035 82.9216 77.4569 82.6471 76.1743 82.6471C75.299 82.6471 74.4337 82.7843 73.5787 83.0588C72.7441 83.3137 72.0315 83.6667 71.4412 84.1176L69.7311 80.9118C70.6269 80.3039 71.7058 79.8333 72.968 79.5C74.2302 79.1667 75.5127 79 76.8156 79C79.3196 79 81.2637 79.5686 82.648 80.7059C84.0324 81.8431 84.7245 83.6176 84.7245 86.0294V95.0588H80.2662ZM75.2582 95.2941C73.9757 95.2941 72.8764 95.0882 71.9603 94.6765C71.0442 94.2451 70.3419 93.6667 69.8533 92.9412C69.3647 92.2157 69.1204 91.402 69.1204 90.5C69.1204 89.5588 69.3545 88.7353 69.8227 88.0294C70.3113 87.3235 71.0747 86.7745 72.113 86.3824C73.1512 85.9706 74.505 85.7647 76.1743 85.7647H80.541V88.4412H76.6935C75.5738 88.4412 74.8002 88.6176 74.3727 88.9706C73.9655 89.3235 73.7619 89.7647 73.7619 90.2941C73.7619 90.8824 73.9961 91.3529 74.4643 91.7059C74.9529 92.0392 75.6145 92.2059 76.4492 92.2059C77.2431 92.2059 77.9556 92.0294 78.5867 91.6765C79.2178 91.3039 79.6758 90.7647 79.9608 90.0588L80.6937 92.1765C80.3476 93.1961 79.7166 93.9706 78.8005 94.5C77.8844 95.0294 76.7036 95.2941 75.2582 95.2941Z" fill="#2050F6"/>
<path d="M96.8809 101C95.3337 101 93.8374 100.814 92.392 100.441C90.967 100.088 89.7761 99.549 88.8193 98.8235L90.7125 95.5294C91.4047 96.0784 92.2801 96.5098 93.3387 96.8235C94.4176 97.1569 95.4762 97.3235 96.5145 97.3235C98.2041 97.3235 99.4256 96.9608 100.179 96.2353C100.952 95.5098 101.339 94.4314 101.339 93V90.6176L101.645 86.6471L101.584 82.6471V79.2353H106.103V92.4118C106.103 95.3529 105.309 97.5196 103.721 98.9118C102.133 100.304 99.8531 101 96.8809 101ZM96.148 94.2941C94.6212 94.2941 93.2369 93.9804 91.9951 93.3529C90.7736 92.7059 89.7863 91.8137 89.033 90.6765C88.3002 89.5196 87.9337 88.1765 87.9337 86.6471C87.9337 85.098 88.3002 83.7549 89.033 82.6176C89.7863 81.4608 90.7736 80.5686 91.9951 79.9412C93.2369 79.3137 94.6212 79 96.148 79C97.5323 79 98.7538 79.2745 99.8124 79.8235C100.871 80.3529 101.695 81.1863 102.286 82.3235C102.876 83.4412 103.171 84.8824 103.171 86.6471C103.171 88.3922 102.876 89.8333 102.286 90.9706C101.695 92.0882 100.871 92.9216 99.8124 93.4706C98.7538 94.0196 97.5323 94.2941 96.148 94.2941ZM97.0946 90.5294C97.9293 90.5294 98.6724 90.3725 99.3238 90.0588C99.9753 89.7255 100.484 89.2647 100.851 88.6765C101.217 88.0882 101.4 87.4118 101.4 86.6471C101.4 85.8627 101.217 85.1863 100.851 84.6176C100.484 84.0294 99.9753 83.5784 99.3238 83.2647C98.6724 82.9314 97.9293 82.7647 97.0946 82.7647C96.26 82.7647 95.5169 82.9314 94.8655 83.2647C94.214 83.5784 93.6949 84.0294 93.3081 84.6176C92.9417 85.1863 92.7585 85.8627 92.7585 86.6471C92.7585 87.4118 92.9417 88.0882 93.3081 88.6765C93.6949 89.2647 94.214 89.7255 94.8655 90.0588C95.5169 90.3725 96.26 90.5294 97.0946 90.5294Z" fill="#2050F6"/>
<path d="M118.69 95.2941C116.817 95.2941 115.168 94.9412 113.743 94.2353C112.338 93.5294 111.249 92.5686 110.476 91.3529C109.702 90.1176 109.315 88.7157 109.315 87.1471C109.315 85.5588 109.692 84.1569 110.445 82.9412C111.219 81.7059 112.267 80.7451 113.59 80.0588C114.914 79.3529 116.41 79 118.079 79C119.687 79 121.133 79.3333 122.415 80C123.718 80.6471 124.746 81.5882 125.499 82.8235C126.253 84.0392 126.629 85.5 126.629 87.2059C126.629 87.3824 126.619 87.5882 126.599 87.8235C126.578 88.0392 126.558 88.2451 126.538 88.4412H113.193V85.7647H124.034L122.202 86.5588C122.202 85.7353 122.029 85.0196 121.682 84.4118C121.336 83.8039 120.858 83.3333 120.247 83C119.636 82.6471 118.924 82.4706 118.11 82.4706C117.295 82.4706 116.573 82.6471 115.942 83C115.331 83.3333 114.852 83.8137 114.506 84.4412C114.16 85.049 113.987 85.7745 113.987 86.6176V87.3235C113.987 88.1863 114.181 88.951 114.567 89.6176C114.975 90.2647 115.534 90.7647 116.247 91.1176C116.98 91.451 117.835 91.6176 118.812 91.6176C119.687 91.6176 120.451 91.4902 121.102 91.2353C121.774 90.9804 122.385 90.598 122.934 90.0882L125.469 92.7353C124.716 93.5588 123.769 94.1961 122.629 94.6471C121.489 95.0784 120.176 95.2941 118.69 95.2941Z" fill="#2050F6"/>
<path d="M129.801 95.0588V79.2353H134.351V83.7059L133.71 82.4118C134.198 81.2941 134.982 80.451 136.061 79.8824C137.14 79.2941 138.453 79 140 79V83.2353C139.796 83.2157 139.613 83.2059 139.45 83.2059C139.287 83.1863 139.114 83.1765 138.931 83.1765C137.628 83.1765 136.57 83.5392 135.755 84.2647C134.962 84.9706 134.565 86.0784 134.565 87.5882V95.0588H129.801Z" fill="#2050F6"/>
</svg>
