<svg width="70" height="79" viewBox="0 0 70 79" fill="none" xmlns="http://www.w3.org/2000/svg">
<path d="M35 0.357147C12.1572 18.2321 0.714294 33.6714 0.714294 46.7143C0.714294 66.2786 17 78.9286 35 78.9286C53 78.9286 69.2857 66.2786 69.2857 46.7143C69.2857 33.6714 57.8429 18.2321 35 0.357147ZM17.1286 47.5C18.7143 47.5 20 48.5214 20.3 49.9357C22.0571 58.6571 30.0714 61.6429 35.9 61.2107C37.7429 61.1321 39.2857 62.4679 39.2857 64.1571C39.2857 65.7286 37.9143 67.025 36.2 67.1036C27.0714 67.6143 16.4 62.8214 13.9572 50.9179C13.8827 50.4967 13.9089 50.0657 14.034 49.6547C14.1591 49.2436 14.38 48.8625 14.6816 48.5374C14.9832 48.2124 15.3582 47.9513 15.7807 47.7722C16.2032 47.5931 16.6631 47.5002 17.1286 47.5V47.5Z" fill="#2050F6"/>
</svg>
